<svg xmlns="http://www.w3.org/2000/svg" version="1.0" width="387.000000pt" height="361.000000pt" viewBox="0 0 387.000000 361.000000" preserveAspectRatio="xMidYMid meet">

<g transform="translate(0.000000,361.000000) scale(0.100000,-0.100000)" fill="#000000" stroke="none">
<path d="M1840 3475 c0 -25 5 -45 10 -45 6 0 10 20 10 45 0 25 -4 45 -10 45 -5 0 -10 -20 -10 -45z"/>
<path d="M1590 3452 c0 -14 78 -73 84 -63 3 5 -10 23 -29 40 -35 31 -55 39 -55 23z"/>
<path d="M2043 3408 c-18 -13 -33 -29 -33 -36 0 -8 3 -12 8 -10 21 9 82 54 82 61 0 14 -25 7 -57 -15z"/>
<path d="M1760 3331 c-120 -37 -188 -152 -178 -306 6 -92 34 -145 95 -177 l43 -23 0 -68 c0 -64 1 -68 26 -78 15 -5 77 -8 138 -7 l111 3 3 68 3 67 39 20 c81 41 114 133 90 252 -24 126 -93 213 -191 242 -55 17 -137 20 -179 7z m207 -46 c79 -40 113 -91 137 -208 20 -96 11 -146 -35 -193 -59 -61 -101 -56 -74 9 45 109 -16 230 -109 213 -17 -3 -54 -9 -83 -14 -57 -9 -77 -22 -99 -63 -19 -38 -18 -88 5 -132 18 -35 18 -37 1 -37 -35 0 -79 49 -96 108 -37 125 22 284 121 328 17 7 64 13 106 14 61 0 85 -5 126 -25z m-43 -199 c18 -8 41 -24 50 -37 22 -32 21 -125 -2 -163 -17 -28 -18 -28 -117 -28 -95 0 -101 1 -119 25 -10 14 -21 47 -23 74 -5 42 -1 53 22 81 34 40 79 46 69 8 -9 -37 12 -68 44 -64 21 2 28 9 30 30 2 15 -2 37 -8 49 -10 17 -9 23 1 30 18 11 14 11 53 -5z m-64 -47 c9 -15 8 -24 -1 -35 -16 -19 -39 0 -39 32 0 30 25 32 40 3z m108 -276 l3 -63 -111 2 -110 2 0 64 0 63 108 -3 107 -3 3 -62z"/>
<path d="M2785 2977 c-129 -130 -228 -238 -348 -375 -15 -18 -35 -32 -45 -32 -9 0 -71 15 -137 33 l-120 32 -285 0 -285 0 -119 -43 c-66 -23 -125 -42 -132 -42 -7 0 -33 38 -59 85 -98 180 -204 336 -248 364 -25 16 -56 4 -67 -24 -5 -13 -16 -99 -25 -192 -24 -261 -33 -331 -44 -351 -6 -11 -41 -44 -78 -75 -107 -87 -235 -217 -275 -277 -40 -63 -240 -440 -287 -545 -54 -118 -52 -205 4 -205 19 0 26 6 30 28 22 113 29 128 210 477 l109 210 122 120 c67 66 146 138 177 160 31 22 60 50 66 62 11 24 29 181 35 308 4 73 10 115 22 154 6 20 50 -22 80 -79 14 -25 44 -80 67 -122 45 -81 113 -173 136 -183 7 -3 67 13 132 35 159 54 236 63 492 57 219 -5 286 -15 450 -72 26 -9 56 -13 67 -10 10 3 35 27 56 53 126 155 422 472 442 472 23 0 27 -48 28 -322 l0 -288 32 -42 c17 -24 51 -72 75 -108 163 -244 177 -267 177 -295 1 -38 17 -67 53 -95 15 -12 41 -42 58 -67 38 -54 131 -241 149 -298 17 -52 27 -65 56 -65 31 0 40 36 24 87 -24 73 -117 258 -165 327 -26 38 -52 84 -59 101 -10 29 -49 90 -243 381 l-74 110 7 185 c5 149 3 210 -11 319 -22 168 -34 200 -72 200 -24 0 -55 -27 -178 -153z"/>
<path d="M2271 2129 c-114 -10 -197 -45 -207 -86 -14 -55 17 -59 276 -32 63 6 158 9 212 6 83 -5 100 -4 119 12 31 25 18 53 -40 85 -45 24 -57 26 -157 25 -60 -1 -151 -6 -203 -10z"/>
<path d="M1375 2080 c-78 -11 -159 -38 -189 -61 -21 -16 -26 -28 -24 -53 3 -30 5 -31 48 -30 25 0 72 8 105 18 38 11 111 20 198 23 116 5 142 9 162 25 30 24 31 42 5 68 -18 18 -32 20 -137 19 -65 -1 -141 -5 -168 -9z"/>
<path d="M2385 1805 c-19 -18 -25 -35 -25 -65 0 -43 33 -90 63 -90 42 0 95 85 80 128 -20 56 -77 69 -118 27z"/>
<path d="M1440 1790 c-42 -42 -36 -117 11 -134 39 -13 77 0 94 34 21 41 19 67 -10 95 -29 30 -68 32 -95 5z"/>
<path d="M1869 1570 c-63 -11 -143 -54 -168 -89 -34 -48 -36 -80 -7 -138 34 -66 82 -105 159 -131 54 -17 62 -24 65 -47 5 -42 -4 -67 -44 -113 -46 -54 -104 -84 -165 -85 -58 -1 -92 20 -119 73 -21 41 -49 63 -66 52 -33 -22 -16 -92 34 -145 85 -89 249 -74 358 34 l51 51 29 -40 c70 -98 187 -129 290 -77 122 61 213 211 151 249 -21 12 -22 11 -80 -79 -96 -149 -259 -151 -321 -4 -17 40 -24 109 -13 126 4 6 36 28 72 48 46 25 77 52 105 91 23 29 47 54 54 54 26 0 40 28 28 55 -35 76 -268 141 -413 115z m210 -90 c22 -11 22 -12 4 -32 -10 -11 -22 -30 -28 -43 -16 -37 -93 -114 -121 -121 -41 -11 -102 14 -145 58 -21 22 -39 48 -39 57 1 59 105 104 226 98 44 -3 91 -10 103 -17z"/>
<path d="M3607 1388 c-10 -5 -51 -75 -92 -156 -97 -189 -191 -355 -248 -434 -63 -89 -232 -283 -267 -308 -37 -27 -53 -55 -45 -80 18 -57 94 -1 260 192 107 125 152 191 263 383 116 203 185 350 178 379 -7 28 -26 38 -49 24z"/>
<path d="M240 1206 c-19 -52 103 -415 200 -593 24 -43 63 -115 87 -161 36 -67 49 -82 68 -82 18 0 25 7 30 28 8 37 -3 63 -85 207 -37 66 -91 181 -119 255 -29 74 -56 145 -61 158 -5 12 -19 59 -31 105 -11 45 -25 88 -31 95 -17 20 -48 14 -58 -12z"/>
</g>
</svg>